# This file uses centimeters as units for non-parametric coordinates.

mtllib mayabottle.mtl
v -10.000000 -1.299455 -0.750240
v -10.000000 -0.750241 -1.299455
v -10.000000 -0.000000 -1.500481
v -10.000000 0.750240 -1.299455
v -10.000000 1.299455 -0.750241
v -10.000000 1.500481 0.000000
v -10.000000 1.299455 0.750241
v -10.000000 0.750241 1.299455
v -10.000000 -0.000000 1.500481
v -10.000000 -0.750241 1.299455
v -10.000000 -1.299455 0.750241
v -10.000000 -1.500482 0.000000
v -9.289845 -1.714669 -0.989964
v -9.289845 -0.989964 -1.714668
v -9.289845 -0.000000 -1.979928
v -9.289845 0.989964 -1.714668
v -9.289845 1.714668 -0.989964
v -9.289845 1.979927 -0.000000
v -9.289845 1.714668 0.989964
v -9.289845 0.989964 1.714669
v -9.289845 -0.000000 1.979928
v -9.289845 -0.989964 1.714669
v -9.289845 -1.714669 0.989964
v -9.289845 -1.979928 0.000000
v -8.377769 -1.347323 -0.777877
v -8.377769 -0.777877 -1.347323
v -8.377769 -0.000000 -1.555753
v -8.377769 0.777877 -1.347323
v -8.377769 1.347323 -0.777877
v -8.377769 1.555753 -0.000000
v -8.377769 1.347323 0.777877
v -8.377769 0.777877 1.347323
v -8.377769 -0.000000 1.555754
v -8.377769 -0.777877 1.347323
v -8.377769 -1.347323 0.777877
v -8.377769 -1.555754 0.000000
v -5.044435 -1.351073 -0.780041
v -5.044435 -0.780042 -1.351075
v -5.044435 -0.000000 -1.560080
v -5.044435 0.780041 -1.351075
v -5.044435 1.351072 -0.780041
v -5.044435 1.560083 -0.000000
v -5.044435 1.351072 0.780042
v -5.044435 0.780041 1.351075
v -5.044435 -0.000000 1.560081
v -5.044435 -0.780042 1.351075
v -5.044435 -1.351073 0.780042
v -5.044435 -1.560083 0.000000
v -2.901076 -3.464101 -2.000000
v -2.901076 -2.000000 -3.464101
v -2.901076 -0.000000 -4.000000
v -2.901076 2.000000 -3.464101
v -2.901076 3.464101 -2.000000
v -2.901076 4.000000 -0.000000
v -2.901076 3.464101 2.000000
v -2.901076 2.000000 3.464101
v -2.901076 0.000000 4.000000
v -2.901076 -2.000000 3.464102
v -2.901076 -3.464102 2.000000
v -2.901076 -4.000000 0.000000
v 6.666666 -3.464101 -2.000000
v 6.666666 -2.000000 -3.464101
v 6.666666 -0.000000 -4.000000
v 6.666666 2.000000 -3.464101
v 6.666666 3.464101 -2.000000
v 6.666666 4.000000 -0.000000
v 6.666666 3.464101 2.000000
v 6.666666 2.000000 3.464101
v 6.666666 0.000000 4.000000
v 6.666666 -2.000000 3.464102
v 6.666666 -3.464102 2.000000
v 6.666666 -4.000000 0.000000
v 7.932500 -2.724142 -1.572783
v 7.932500 -1.572784 -2.724141
v 7.932500 -0.000000 -3.145567
v 7.932500 1.572783 -2.724141
v 7.932500 2.724141 -1.572783
v 7.932500 3.145567 -0.000000
v 7.932500 2.724141 1.572783
v 7.932500 1.572783 2.724142
v 7.932500 0.000000 3.145567
v 7.932500 -1.572784 2.724142
v 7.932500 -2.724142 1.572784
v 7.932500 -3.145567 0.000000
v -10.000000 -0.000000 0.000000
v 7.932500 -0.000000 0.000000
vt 0.059126 0.678591
vt 0.061566 0.678594
vt 0.063412 0.676320
vt 0.060192 0.676317
vt 0.062459 0.678595
vt 0.064590 0.676322
vt 0.061566 0.678594
vt 0.063412 0.676320
vt 0.059126 0.678591
vt 0.060192 0.676317
vt 0.055794 0.678587
vt 0.055795 0.676312
vt 0.052461 0.678583
vt 0.051397 0.676307
vt 0.050022 0.678580
vt 0.048178 0.676303
vt 0.049129 0.678579
vt 0.047000 0.676301
vt 0.050022 0.678580
vt 0.048178 0.676303
vt 0.052461 0.678583
vt 0.051397 0.676307
vt 0.055794 0.678587
vt 0.055795 0.676312
vt 0.061781 0.673396
vt 0.059252 0.673393
vt 0.062707 0.673397
vt 0.061781 0.673396
vt 0.059252 0.673393
vt 0.055796 0.673389
vt 0.052341 0.673385
vt 0.049811 0.673382
vt 0.048885 0.673381
vt 0.049811 0.673382
vt 0.052341 0.673385
vt 0.055796 0.673389
vt 0.061802 0.662715
vt 0.059266 0.662712
vt 0.062731 0.662716
vt 0.061802 0.662715
vt 0.059266 0.662712
vt 0.055801 0.662708
vt 0.052336 0.662704
vt 0.049799 0.662701
vt 0.048871 0.662700
vt 0.049799 0.662701
vt 0.052336 0.662704
vt 0.055801 0.662708
vt 0.071192 0.655858
vt 0.064688 0.655850
vt 0.073572 0.655861
vt 0.908017 0.541224
vt 0.722285 0.541140
vt 0.468568 0.541026
vt 0.214850 0.540911
vt 0.040416 0.655823
vt 0.038036 0.655820
vt 0.040416 0.655823
vt 0.046920 0.655830
vt 0.055804 0.655840
vt 0.071206 0.625200
vt 0.064702 0.625193
vt 0.073586 0.625203
vt 0.071206 0.625200
vt 0.064702 0.625193
vt 0.055818 0.625182
vt 0.046934 0.625172
vt 0.040430 0.625165
vt 0.038050 0.625162
vt 0.040430 0.625165
vt 0.046934 0.625172
vt 0.055818 0.625182
vt 0.067921 0.621140
vt 0.062806 0.621134
vt 0.069793 0.621142
vt 0.067921 0.621140
vt 0.062806 0.621134
vt 0.055820 0.621126
vt 0.048833 0.621118
vt 0.043719 0.621112
vt 0.041847 0.621110
vt 0.043719 0.621112
vt 0.048833 0.621118
vt 0.055820 0.621126
vt 0.055794 0.678587
vt 0.055820 0.621126
vt 0.040430 0.625165
vt 0.029519 0.199579
vt 0.040430 0.625165
vt 0.215254 0.199659
vt 0.215254 0.199659
vt 0.046934 0.625172
vt 0.468970 0.199773
vt 0.468970 0.199773
vt 0.055818 0.625182
vt 0.722688 0.199887
vt 0.722688 0.199887
vt 0.064702 0.625193
vt 0.908422 0.199972
vt 0.071206 0.625200
vt 0.071206 0.625200
vt 0.040416 0.655823
vt 0.040416 0.655823
vt 0.029118 0.540832
vt 0.046920 0.655830
vt 0.046920 0.655830
vt 0.214850 0.540911
vt 0.055804 0.655840
vt 0.055804 0.655840
vt 0.468568 0.541026
vt 0.064688 0.655850
vt 0.064688 0.655850
vt 0.722285 0.541140
vt 0.071192 0.655858
vt 0.071192 0.655858
vt 0.071192 0.655858
vn -0.546239 -0.592293 -0.592293
vn -0.546239 -0.592293 -0.592293
vn -0.077754 -0.704966 -0.704966
vn -0.077754 -0.704966 -0.704966
vn -0.546239 -0.216794 -0.809088
vn -0.546239 -0.216794 -0.809088
vn -0.077754 -0.258035 -0.963002
vn -0.077754 -0.258035 -0.963002
vn -0.546239 0.216794 -0.809088
vn -0.546239 0.216794 -0.809088
vn -0.077754 0.258035 -0.963002
vn -0.077754 0.258035 -0.963002
vn -0.546239 0.592294 -0.592293
vn -0.546239 0.592294 -0.592293
vn -0.077754 0.704966 -0.704966
vn -0.077754 0.704966 -0.704966
vn -0.546239 0.809088 -0.216794
vn -0.546239 0.809088 -0.216794
vn -0.077754 0.963002 -0.258035
vn -0.077754 0.963002 -0.258035
vn -0.546238 0.809088 0.216794
vn -0.546238 0.809088 0.216794
vn -0.077753 0.963002 0.258035
vn -0.077753 0.963002 0.258035
vn -0.546239 0.592293 0.592294
vn -0.546239 0.592293 0.592294
vn -0.077754 0.704966 0.704966
vn -0.077754 0.704966 0.704966
vn -0.546239 0.216794 0.809088
vn -0.546239 0.216794 0.809088
vn -0.077754 0.258035 0.963002
vn -0.077754 0.258035 0.963002
vn -0.546239 -0.216794 0.809088
vn -0.546239 -0.216794 0.809088
vn -0.077754 -0.258035 0.963002
vn -0.077754 -0.258035 0.963002
vn -0.546239 -0.592293 0.592293
vn -0.546239 -0.592293 0.592293
vn -0.077754 -0.704966 0.704966
vn -0.077754 -0.704966 0.704966
vn -0.546239 -0.809088 0.216794
vn -0.546239 -0.809088 0.216794
vn -0.077754 -0.963002 0.258035
vn -0.077754 -0.963002 0.258035
vn -0.546239 -0.809088 -0.216794
vn -0.546239 -0.809088 -0.216794
vn -0.077753 -0.963002 -0.258035
vn -0.077753 -0.963002 -0.258035
vn 0.208924 -0.691503 -0.691502
vn 0.208924 -0.691503 -0.691502
vn 0.208924 -0.253105 -0.944610
vn 0.208924 -0.253105 -0.944610
vn 0.208924 0.253105 -0.944610
vn 0.208924 0.253105 -0.944610
vn 0.208924 0.691503 -0.691502
vn 0.208924 0.691503 -0.691502
vn 0.208924 0.944610 -0.253107
vn 0.208924 0.944610 -0.253107
vn 0.208924 0.944610 0.253107
vn 0.208924 0.944610 0.253107
vn 0.208924 0.691503 0.691502
vn 0.208924 0.691503 0.691502
vn 0.208924 0.253105 0.944610
vn 0.208924 0.253105 0.944610
vn 0.208924 -0.253105 0.944610
vn 0.208924 -0.253105 0.944610
vn 0.208924 -0.691503 0.691502
vn 0.208924 -0.691503 0.691502
vn 0.208924 -0.944610 0.253106
vn 0.208924 -0.944610 0.253106
vn 0.208924 -0.944610 -0.253107
vn 0.208924 -0.944610 -0.253107
vn -0.405039 -0.646508 -0.646507
vn -0.405039 -0.646508 -0.646507
vn -0.405039 -0.236635 -0.883146
vn -0.405039 -0.236635 -0.883146
vn -0.405039 0.236635 -0.883146
vn -0.405039 0.236635 -0.883146
vn -0.405039 0.646508 -0.646507
vn -0.405039 0.646508 -0.646507
vn -0.405039 0.883146 -0.236638
vn -0.405039 0.883146 -0.236638
vn -0.405039 0.883146 0.236637
vn -0.405039 0.883146 0.236637
vn -0.405039 0.646508 0.646507
vn -0.405039 0.646508 0.646507
vn -0.405039 0.236635 0.883146
vn -0.405039 0.236635 0.883146
vn -0.405039 -0.236635 0.883146
vn -0.405039 -0.236635 0.883146
vn -0.405039 -0.646508 0.646507
vn -0.405039 -0.646508 0.646507
vn -0.405039 -0.883146 0.236638
vn -0.405039 -0.883146 0.236638
vn -0.405039 -0.883146 -0.236638
vn -0.405039 -0.883146 -0.236638
vn -0.404465 -0.646687 -0.646687
vn -0.404465 -0.646687 -0.646687
vn -0.404465 -0.236703 -0.883391
vn -0.404465 -0.236703 -0.883391
vn -0.404465 0.236703 -0.883391
vn -0.404465 0.236703 -0.883391
vn -0.404465 0.646687 -0.646687
vn -0.404465 0.646687 -0.646687
vn -0.404465 0.883391 -0.236704
vn -0.404465 0.883391 -0.236704
vn -0.404465 0.883391 0.236704
vn -0.404465 0.883391 0.236704
vn -0.404465 0.646687 0.646687
vn -0.404465 0.646687 0.646687
vn -0.404465 0.236703 0.883391
vn -0.404465 0.236703 0.883391
vn -0.404465 -0.236703 0.883391
vn -0.404465 -0.236703 0.883391
vn -0.404465 -0.646687 0.646687
vn -0.404465 -0.646687 0.646687
vn -0.404465 -0.883391 0.236704
vn -0.404465 -0.883391 0.236704
vn -0.404465 -0.883391 -0.236704
vn -0.404465 -0.883391 -0.236704
vn 0.284887 -0.677805 -0.677805
vn 0.284887 -0.677805 -0.677805
vn 0.284887 -0.248094 -0.925899
vn 0.284887 -0.248094 -0.925899
vn 0.284887 0.248094 -0.925899
vn 0.284887 0.248094 -0.925899
vn 0.284887 0.677805 -0.677805
vn 0.284887 0.677805 -0.677805
vn 0.284887 0.925899 -0.248094
vn 0.284887 0.925899 -0.248094
vn 0.284887 0.925899 0.248094
vn 0.284887 0.925899 0.248094
vn 0.284887 0.677805 0.677805
vn 0.284887 0.677805 0.677805
vn 0.284887 0.248094 0.925899
vn 0.284887 0.248094 0.925899
vn 0.284887 -0.248094 0.925899
vn 0.284887 -0.248094 0.925899
vn 0.284887 -0.677805 0.677805
vn 0.284887 -0.677805 0.677805
vn 0.284887 -0.925899 0.248094
vn 0.284887 -0.925899 0.248094
vn 0.284887 -0.925899 -0.248094
vn 0.284887 -0.925899 -0.248094
vn 0.546163 -0.592328 -0.592328
vn 0.546163 -0.592328 -0.592328
vn 0.546163 -0.216807 -0.809136
vn 0.546163 -0.216807 -0.809136
vn 0.546163 0.216807 -0.809136
vn 0.546163 0.216807 -0.809136
vn 0.546163 0.592328 -0.592329
vn 0.546163 0.592328 -0.592329
vn 0.546163 0.809136 -0.216807
vn 0.546163 0.809136 -0.216807
vn 0.546163 0.809136 0.216807
vn 0.546163 0.809136 0.216807
vn 0.546163 0.592328 0.592328
vn 0.546163 0.592328 0.592328
vn 0.546163 0.216807 0.809136
vn 0.546163 0.216807 0.809136
vn 0.546163 -0.216807 0.809136
vn 0.546163 -0.216807 0.809136
vn 0.546163 -0.592328 0.592329
vn 0.546163 -0.592328 0.592329
vn 0.546163 -0.809136 0.216807
vn 0.546163 -0.809136 0.216807
vn 0.546163 -0.809136 -0.216807
vn 0.546163 -0.809136 -0.216807
vn -1.000000 0.000000 0.000000
vn -1.000000 0.000000 0.000000
vn -1.000000 -0.000000 0.000000
vn -1.000000 -0.000000 0.000000
vn -1.000000 -0.000000 0.000000
vn -1.000000 -0.000000 0.000000
vn -1.000000 -0.000000 0.000000
vn -1.000000 -0.000000 0.000000
vn -1.000000 -0.000000 0.000000
vn -1.000000 -0.000000 0.000000
vn -1.000000 0.000000 0.000000
vn -1.000000 0.000000 0.000000
vn -1.000000 -0.000000 0.000000
vn 1.000000 -0.000000 0.000000
vn 1.000000 -0.000000 0.000000
vn 1.000000 -0.000000 0.000000
vn 1.000000 -0.000000 0.000000
vn 1.000000 -0.000000 0.000000
vn 1.000000 -0.000000 0.000000
vn 1.000000 -0.000000 0.000000
vn 1.000000 -0.000000 0.000000
vn 1.000000 -0.000000 0.000000
vn 1.000000 -0.000000 0.000000
vn 1.000000 0.000000 0.000000
vn 1.000000 0.000000 0.000000
vn 1.000000 -0.000000 0.000000
g bottle
usemtl bottleMat
f 1/1/1 2/2/2 14/3/3 13/4/4
f 2/2/5 3/5/6 15/6/7 14/3/8
f 3/5/9 4/7/10 16/8/11 15/6/12
f 4/7/13 5/9/14 17/10/15 16/8/16
f 5/9/17 6/11/18 18/12/19 17/10/20
f 6/11/21 7/13/22 19/14/23 18/12/24
f 7/13/25 8/15/26 20/16/27 19/14/28
f 8/15/29 9/17/30 21/18/31 20/16/32
f 9/17/33 10/19/34 22/20/35 21/18/36
f 10/19/37 11/21/38 23/22/39 22/20/40
f 11/21/41 12/23/42 24/24/43 23/22/44
f 12/23/45 1/1/46 13/4/47 24/24/48
f 13/4/4 14/3/3 26/25/49 25/26/50
f 14/3/8 15/6/7 27/27/51 26/25/52
f 15/6/12 16/8/11 28/28/53 27/27/54
f 16/8/16 17/10/15 29/29/55 28/28/56
f 17/10/20 18/12/19 30/30/57 29/29/58
f 18/12/24 19/14/23 31/31/59 30/30/60
f 19/14/28 20/16/27 32/32/61 31/31/62
f 20/16/32 21/18/31 33/33/63 32/32/64
f 21/18/36 22/20/35 34/34/65 33/33/66
f 22/20/40 23/22/39 35/35/67 34/34/68
f 23/22/44 24/24/43 36/36/69 35/35/70
f 24/24/48 13/4/47 25/26/71 36/36/72
f 25/26/50 26/25/49 38/37/73 37/38/74
f 26/25/52 27/27/51 39/39/75 38/37/76
f 27/27/54 28/28/53 40/40/77 39/39/78
f 28/28/56 29/29/55 41/41/79 40/40/80
f 29/29/58 30/30/57 42/42/81 41/41/82
f 30/30/60 31/31/59 43/43/83 42/42/84
f 31/31/62 32/32/61 44/44/85 43/43/86
f 32/32/64 33/33/63 45/45/87 44/44/88
f 33/33/66 34/34/65 46/46/89 45/45/90
f 34/34/68 35/35/67 47/47/91 46/46/92
f 35/35/70 36/36/69 48/48/93 47/47/94
f 36/36/72 25/26/71 37/38/95 48/48/96
f 37/38/74 38/37/73 50/49/97 49/50/98
f 38/37/76 39/39/75 51/51/99 50/49/100
f 39/39/78 40/40/77 52/115/101 51/51/102
f 40/40/80 41/41/79 53/112/103 52/114/104
f 41/41/82 42/42/81 54/109/105 53/111/106
f 42/42/84 43/43/83 55/106/107 54/108/108
f 43/43/86 44/44/85 56/103/109 55/105/110
f 44/44/88 45/45/87 57/57/111 56/102/112
f 45/45/90 46/46/89 58/58/113 57/57/114
f 46/46/92 47/47/91 59/59/115 58/58/116
f 47/47/94 48/48/93 60/60/117 59/59/118
f 48/48/96 37/38/95 49/50/119 60/60/120
f 49/50/98 50/49/97 62/61/121 61/62/122
f 50/49/100 51/51/99 63/63/123 62/61/124
f 51/51/102 52/116/101 64/100/125 63/63/126
f 52/52/104 53/113/103 65/97/127 64/99/128
f 53/53/106 54/110/105 66/94/129 65/96/130
f 54/54/108 55/107/107 67/91/131 66/93/132
f 55/55/110 56/104/109 68/88/133 67/90/134
f 56/56/112 57/57/111 69/69/135 68/87/136
f 57/57/114 58/58/113 70/70/137 69/69/138
f 58/58/116 59/59/115 71/71/139 70/70/140
f 59/59/118 60/60/117 72/72/141 71/71/142
f 60/60/120 49/50/119 61/62/143 72/72/144
f 61/62/122 62/61/121 74/73/145 73/74/146
f 62/61/124 63/63/123 75/75/147 74/73/148
f 63/63/126 64/101/125 76/76/149 75/75/150
f 64/64/128 65/98/127 77/77/151 76/76/152
f 65/65/130 66/95/129 78/78/153 77/77/154
f 66/66/132 67/92/131 79/79/155 78/78/156
f 67/67/134 68/89/133 80/80/157 79/79/158
f 68/68/136 69/69/135 81/81/159 80/80/160
f 69/69/138 70/70/137 82/82/161 81/81/162
f 70/70/140 71/71/139 83/83/163 82/82/164
f 71/71/142 72/72/141 84/84/165 83/83/166
f 72/72/144 61/62/143 73/74/167 84/84/168
f 2/2/169 1/1/170 85/85/171
f 3/5/172 2/2/169 85/85/171
f 4/7/173 3/5/172 85/85/171
f 5/9/174 4/7/173 85/85/171
f 6/11/175 5/9/174 85/85/171
f 7/13/176 6/11/175 85/85/171
f 8/15/177 7/13/176 85/85/171
f 9/17/178 8/15/177 85/85/171
f 10/19/179 9/17/178 85/85/171
f 11/21/180 10/19/179 85/85/171
f 12/23/181 11/21/180 85/85/171
f 1/1/170 12/23/181 85/85/171
f 73/74/182 74/73/183 86/86/184
f 74/73/183 75/75/185 86/86/184
f 75/75/185 76/76/186 86/86/184
f 76/76/186 77/77/187 86/86/184
f 77/77/187 78/78/188 86/86/184
f 78/78/188 79/79/189 86/86/184
f 79/79/189 80/80/190 86/86/184
f 80/80/190 81/81/191 86/86/184
f 81/81/191 82/82/192 86/86/184
f 82/82/192 83/83/193 86/86/184
f 83/83/193 84/84/194 86/86/184
f 84/84/194 73/74/182 86/86/184
v -11.117115 -1.174252 -0.677955
v -11.117115 -0.677955 -1.174252
v -11.117115 -0.000000 -1.355910
v -11.117115 0.677955 -1.174252
v -11.117115 1.174252 -0.677955
v -11.117115 1.355910 -0.000000
v -11.117115 1.174252 0.677955
v -11.117115 0.677955 1.174252
v -11.117115 -0.000000 1.355910
v -11.117115 -0.677955 1.174252
v -11.117115 -1.174252 0.677955
v -11.117115 -1.355910 0.000000
v -7.917871 -0.929922 -0.536890
v -7.917871 -0.536890 -0.929922
v -7.917871 -0.000000 -1.073781
v -7.917871 0.536890 -0.929922
v -7.917871 0.929922 -0.536890
v -7.917871 1.073780 -0.000000
v -7.917871 0.929922 0.536890
v -7.917871 0.536890 0.929922
v -7.917871 -0.000000 1.073781
v -7.917871 -0.536890 0.929922
v -7.917871 -0.929922 0.536890
v -7.917871 -1.073780 0.000000
v -11.117115 -0.000000 0.000000
vt 0.317740 0.873520
vt 0.353416 0.873524
vt 0.353435 0.719221
vt 0.389090 0.873529
vt 0.389111 0.719225
vt 0.424765 0.873534
vt 0.424786 0.719230
vt 0.460439 0.873539
vt 0.460461 0.719235
vt 0.496114 0.873544
vt 0.496135 0.719240
vt 0.531789 0.873550
vt 0.531810 0.719245
vt 0.567463 0.873554
vt 0.567485 0.719250
vt 0.603138 0.873559
vt 0.603159 0.719255
vt 0.638810 0.873564
vt 0.638832 0.719260
vt 0.674484 0.873568
vt 0.674507 0.719265
vt 0.710160 0.873574
vt 0.710181 0.719270
vt 0.478988 0.873542
vt 0.282086 0.719211
vt 0.282064 0.873514
vt 0.479765 0.873512
vt 0.317760 0.719216
vn 0.084874 -0.704556 -0.704555
vn 0.084874 -0.704556 -0.704555
vn 0.084874 -0.704556 -0.704555
vn 0.084874 -0.704556 -0.704555
vn 0.084874 -0.257884 -0.962441
vn 0.084874 -0.257884 -0.962441
vn 0.084874 -0.257884 -0.962441
vn 0.084874 -0.257884 -0.962441
vn 0.084874 0.257884 -0.962441
vn 0.084874 0.257884 -0.962441
vn 0.084874 0.257884 -0.962441
vn 0.084874 0.257884 -0.962441
vn 0.084874 0.704556 -0.704555
vn 0.084874 0.704556 -0.704555
vn 0.084874 0.704556 -0.704555
vn 0.084874 0.704556 -0.704555
vn 0.084874 0.962441 -0.257884
vn 0.084874 0.962441 -0.257884
vn 0.084874 0.962441 -0.257884
vn 0.084874 0.962441 -0.257884
vn 0.084874 0.962441 0.257884
vn 0.084874 0.962441 0.257884
vn 0.084874 0.962441 0.257884
vn 0.084874 0.962441 0.257884
vn 0.084874 0.704556 0.704555
vn 0.084874 0.704556 0.704555
vn 0.084874 0.704556 0.704555
vn 0.084874 0.704556 0.704555
vn 0.084874 0.257884 0.962441
vn 0.084874 0.257884 0.962441
vn 0.084874 0.257884 0.962441
vn 0.084874 0.257884 0.962441
vn 0.084874 -0.257884 0.962441
vn 0.084874 -0.257884 0.962441
vn 0.084874 -0.257884 0.962441
vn 0.084874 -0.257884 0.962441
vn 0.084874 -0.704556 0.704555
vn 0.084874 -0.704556 0.704555
vn 0.084874 -0.704556 0.704555
vn 0.084874 -0.704556 0.704555
vn 0.084874 -0.962441 0.257884
vn 0.084874 -0.962441 0.257884
vn 0.084874 -0.962441 0.257884
vn 0.084874 -0.962441 0.257884
vn 0.084874 -0.962441 -0.257884
vn 0.084874 -0.962441 -0.257884
vn 0.084874 -0.962441 -0.257884
vn 0.084874 -0.962441 -0.257884
vn -1.000000 0.000000 0.000000
vn -1.000000 0.000000 0.000000
vn -1.000000 0.000000 0.000000
vn -1.000000 0.000000 0.000000
vn -1.000000 0.000000 0.000000
vn -1.000000 0.000000 0.000000
vn -1.000000 0.000000 0.000000
vn -1.000000 -0.000000 0.000000
vn -1.000000 -0.000000 0.000000
vn -1.000000 -0.000000 0.000000
vn -1.000000 -0.000000 0.000000
vn -1.000000 0.000000 0.000000
vn -1.000000 0.000000 0.000000
vn 1.000000 0.000000 0.000000
vn 1.000000 0.000000 0.000000
vn 1.000000 0.000000 0.000000
vn 1.000000 0.000000 0.000000
vn 1.000000 0.000000 0.000000
vn 1.000000 0.000000 0.000000
vn 1.000000 0.000000 0.000000
vn 1.000000 0.000000 0.000000
vn 1.000000 0.000000 0.000000
vn 1.000000 0.000000 0.000000
vn 1.000000 0.000000 0.000000
vn 1.000000 0.000000 0.000000
g cork
usemtl corkMat
f 87/117/195 88/118/196 100/119/197 99/144/198
f 88/118/199 89/120/200 101/121/201 100/119/202
f 89/120/203 90/122/204 102/123/205 101/121/206
f 90/122/207 91/124/208 103/125/209 102/123/210
f 91/124/211 92/126/212 104/127/213 103/125/214
f 92/126/215 93/128/216 105/129/217 104/127/218
f 93/128/219 94/130/220 106/131/221 105/129/222
f 94/130/223 95/132/224 107/133/225 106/131/226
f 95/132/227 96/134/228 108/135/229 107/133/230
f 96/134/231 97/136/232 109/137/233 108/135/234
f 97/136/235 98/138/236 110/139/237 109/137/238
f 98/142/239 87/117/240 99/144/241 110/141/242
f 88/118/243 87/117/244 111/140/245
f 89/120/246 88/118/243 111/140/245
f 90/122/247 89/120/246 111/140/245
f 91/124/248 90/122/247 111/140/245
f 92/126/249 91/124/248 111/140/245
f 93/128/250 92/126/249 111/140/245
f 94/130/251 93/128/250 111/140/245
f 95/132/252 94/130/251 111/140/245
f 96/134/253 95/132/252 111/140/245
f 97/136/254 96/134/253 111/140/245
f 98/138/255 97/136/254 111/140/245
f 87/117/244 98/142/255 111/143/245
f 100/119/256 101/121/257 102/123/258 103/125/259 104/127/260 105/129/261 106/131/262 107/133/263 108/135/264 109/137/265 110/141/266 99/144/267
